<svg width="35" height="244" viewBox="0 0 35 244" fill="none" xmlns="http://www.w3.org/2000/svg">
<path d="M-1 243.426V239.841H12.2721L-1 226.029V221.381L11.2104 234.396L26.3406 220.983V225.631L13.4666 237.317L16.1211 240.106H26.4733V243.692H-1V243.426Z" fill="#FFB32C"/>
<path d="M26.7388 209.96C26.7388 211.554 26.4733 212.882 25.9424 214.077C25.4115 215.272 24.7479 216.202 23.8189 217.131C22.8898 217.928 21.8281 218.592 20.5008 218.991C19.3064 219.389 17.8464 219.655 16.3865 219.655C14.9265 219.655 13.5993 219.389 12.2721 218.991C10.9449 218.592 9.88313 217.928 8.95408 217.131C8.02503 216.335 7.2287 215.272 6.69782 214.077C6.16693 212.882 5.90149 211.554 5.90149 209.96C5.90149 208.367 6.16693 207.039 6.69782 205.843C7.2287 204.648 8.02503 203.586 8.95408 202.789C9.88313 201.992 10.9449 201.328 12.2721 200.93C13.5993 200.531 14.9265 200.266 16.3865 200.266C17.8464 200.266 19.1736 200.531 20.5008 200.93C21.6953 201.328 22.8898 201.992 23.8189 202.789C24.7479 203.586 25.4115 204.648 25.9424 205.843C26.4733 207.039 26.7388 208.367 26.7388 209.96ZM23.9516 209.96C23.9516 209.163 23.8189 208.367 23.4207 207.57C23.1553 206.773 22.6244 206.109 21.9608 205.578C21.2972 205.047 20.5008 204.515 19.5718 204.25C18.6427 203.984 17.581 203.718 16.3865 203.718C15.192 203.718 14.1302 203.851 13.2012 204.25C12.2721 204.515 11.4758 205.047 10.8122 205.578C10.1486 206.109 9.75041 206.773 9.35225 207.57C9.0868 208.367 8.82136 209.163 8.82136 209.96C8.82136 210.757 8.95408 211.554 9.35225 212.351C9.61769 213.147 10.1486 213.811 10.8122 214.343C11.4758 214.874 12.2721 215.405 13.2012 215.671C14.1302 215.936 15.192 216.202 16.3865 216.202C17.581 216.202 18.6427 216.069 19.5718 215.671C20.5008 215.405 21.2972 214.874 21.9608 214.343C22.6244 213.811 23.0226 213.147 23.4207 212.351C23.6862 211.554 23.9516 210.757 23.9516 209.96Z" fill="#FFB32C"/>
<path d="M6.56506 196.547V193.36H14.3956V183.267H6.56506V180.08H26.3406V183.267H17.1828V193.36H26.3406V196.547H6.56506Z" fill="#FFB32C"/>
<path d="M24.8807 163.745C25.1461 164.011 25.2788 164.276 25.5443 164.542C25.8097 164.807 25.9424 165.206 26.2079 165.604C26.3406 166.003 26.4733 166.401 26.6061 166.799C26.7388 167.198 26.7388 167.596 26.7388 167.995C26.7388 169.456 26.4733 170.784 25.8097 171.713C25.2788 172.776 24.4825 173.572 23.4207 174.104C22.4917 174.768 21.2972 175.166 19.97 175.432C18.6428 175.697 17.3156 175.83 15.9883 175.83C12.803 175.83 10.414 175.166 8.55594 173.705C6.83056 172.377 5.90151 170.385 5.90151 168.127C5.90151 167.729 5.90151 167.331 6.03423 166.799C6.16696 166.401 6.29968 165.87 6.56512 165.471C6.83056 165.073 6.96328 164.675 7.22873 164.409C7.49417 164.011 7.75961 163.745 8.02506 163.612H-1V160.425H8.15778C7.89233 160.159 7.62689 159.894 7.36145 159.628C7.09601 159.363 6.83056 158.964 6.69784 158.566C6.4324 158.167 6.29968 157.769 6.16696 157.238C6.03423 156.839 6.03423 156.308 6.03423 155.91C6.03423 153.519 6.96328 151.66 8.68866 150.332C10.414 149.004 12.9357 148.207 16.1211 148.207C17.4483 148.207 18.7755 148.34 20.1027 148.606C21.4299 148.871 22.4917 149.402 23.5535 149.934C24.4825 150.598 25.2788 151.394 25.9424 152.324C26.4733 153.386 26.8715 154.582 26.8715 156.042C26.8715 156.839 26.7388 157.503 26.3406 158.433C25.9424 159.23 25.5443 159.894 25.0134 160.292H34.0384V163.479H24.8807V163.745ZM24.0843 167.596C24.0843 166.667 23.8189 165.737 23.288 165.073C22.7571 164.409 22.2262 163.878 21.4299 163.745H11.6085C11.0776 163.878 10.6795 164.143 10.2813 164.409C9.88315 164.675 9.61771 165.073 9.48499 165.471C9.21955 165.87 9.08683 166.268 9.08683 166.667C8.9541 167.065 8.95411 167.463 8.95411 167.862C8.95411 168.659 9.08683 169.456 9.48499 169.987C9.88315 170.651 10.414 171.049 11.0776 171.448C11.7413 171.846 12.5376 172.112 13.4666 172.244C14.3957 172.377 15.3247 172.51 16.3865 172.51C17.3156 172.51 18.2446 172.377 19.1737 172.244C20.1027 172.112 20.899 171.846 21.6954 171.448C22.4917 171.049 23.0226 170.518 23.5535 169.987C23.8189 169.456 24.0843 168.659 24.0843 167.596ZM24.0843 156.706C24.0843 155.777 23.8189 154.847 23.4207 154.316C22.8899 153.652 22.359 153.121 21.5626 152.855C20.7663 152.457 19.97 152.191 19.0409 152.058C18.1119 151.926 17.1828 151.793 16.2538 151.793C15.192 151.793 14.1302 151.926 13.3339 152.058C12.4049 152.191 11.6085 152.59 10.9449 152.855C10.2813 153.254 9.75043 153.785 9.35227 154.316C8.95411 154.98 8.82138 155.644 8.82138 156.441C8.82138 156.839 8.82138 157.238 8.95411 157.636C9.08683 158.035 9.21955 158.433 9.35227 158.831C9.61771 159.23 9.88315 159.495 10.1486 159.894C10.414 160.292 10.9449 160.425 11.4758 160.558H21.4299C22.0935 160.425 22.7571 160.027 23.288 159.23C23.8189 158.566 24.0843 157.769 24.0843 156.706Z" fill="#FFB32C"/>
<path d="M26.7387 135.989C26.7387 137.583 26.4733 138.911 25.9424 140.106C25.4115 141.301 24.7479 142.231 23.8188 143.028C22.8898 143.825 21.828 144.356 20.5008 144.754C19.1736 145.153 17.8464 145.286 16.3864 145.286C14.9265 145.286 13.5993 145.02 12.2721 144.622C10.9449 144.223 9.8831 143.559 8.95405 142.63C8.025 141.833 7.36139 140.77 6.83051 139.708C6.29962 138.513 6.03418 137.317 6.03418 135.989C6.03418 134.263 6.43234 132.802 7.09595 131.607C7.75956 130.412 8.68861 129.482 9.8831 128.818C10.9449 128.154 12.2721 127.623 13.5993 127.357C14.9265 127.092 16.2537 126.959 17.4482 127.092V142.098C18.3773 142.098 19.1736 141.965 19.9699 141.833C20.7663 141.567 21.4299 141.169 22.0935 140.77C22.7571 140.239 23.1552 139.575 23.5534 138.778C23.9516 137.981 24.0843 137.052 24.0843 135.989C24.0843 134.661 23.8188 133.466 23.1552 132.537C22.4916 131.607 21.5626 131.076 20.2354 130.81V127.623C22.4916 128.021 24.217 128.951 25.2788 130.545C26.2078 131.873 26.7387 133.732 26.7387 135.989ZM14.5283 130.677C13.732 130.677 13.0684 130.943 12.4048 131.209C11.7412 131.474 11.0776 131.873 10.6794 132.404C10.1485 132.935 9.75038 133.466 9.48494 134.13C9.21949 134.794 9.08677 135.591 9.08677 136.388C9.08677 137.185 9.21949 137.981 9.48494 138.645C9.75038 139.309 10.1485 139.841 10.6794 140.372C11.2103 140.903 11.7412 141.301 12.4048 141.567C13.0684 141.833 13.8647 141.965 14.5283 142.098V130.677Z" fill="#FFB32C"/>
<path d="M6.56506 123.772V120.584H9.21949V120.452C8.15772 119.92 7.36139 119.124 6.83051 117.928C6.29962 116.733 6.03418 115.538 6.03418 114.077C6.03418 112.483 6.29962 111.155 6.83051 110.093C7.36139 108.898 8.15772 107.968 9.08677 107.304C10.0158 106.507 11.2103 105.976 12.4048 105.578C13.5993 105.179 14.9265 105.047 16.3864 105.047C17.8464 105.047 19.1736 105.179 20.3681 105.578C21.5626 105.976 22.6244 106.507 23.5534 107.304C24.4825 108.101 25.2788 109.031 25.8097 110.093C26.3406 111.288 26.606 112.483 26.606 114.077C26.606 114.608 26.606 115.139 26.4733 115.671C26.3406 116.202 26.2078 116.866 25.9424 117.397C25.6769 117.928 25.4115 118.592 25.0133 119.124C24.6152 119.655 24.0843 120.053 23.5534 120.452V120.584H33.773V123.772H6.56506ZM23.9516 114.343C23.9516 113.28 23.6861 112.351 23.288 111.554C22.8898 110.757 22.2262 110.226 21.5626 109.695C20.899 109.296 19.9699 108.898 19.1736 108.765C18.2445 108.499 17.3155 108.499 16.3864 108.499C15.4574 108.499 14.5283 108.632 13.732 108.898C12.803 109.163 12.0066 109.562 11.343 109.96C10.6794 110.491 10.1485 111.155 9.75038 111.819C9.35221 112.616 9.08677 113.546 9.08677 114.608C9.08677 115.671 9.35221 116.6 9.75038 117.397C10.1485 118.194 10.8121 118.725 11.4758 119.256C12.1394 119.788 12.9357 120.053 13.8647 120.319C14.7938 120.584 15.7228 120.584 16.5192 120.584C17.4482 120.584 18.3773 120.452 19.3063 120.186C20.2354 119.92 21.0317 119.655 21.6953 119.124C22.3589 118.592 22.8898 117.928 23.4207 117.132C23.6861 116.467 23.9516 115.538 23.9516 114.343Z" fill="#FFB32C"/>
<path d="M26.7387 92.8287C26.7387 94.4223 26.4733 95.7503 25.9424 96.9456C25.4115 98.1408 24.7479 99.0704 23.8188 99.8672C22.8898 100.664 21.828 101.195 20.5008 101.594C19.1736 101.992 17.8464 102.125 16.3864 102.125C14.9265 102.125 13.5993 101.859 12.2721 101.461C10.9449 101.062 9.8831 100.398 8.95405 99.4688C8.025 98.672 7.36139 97.6096 6.83051 96.5472C6.29962 95.6175 6.03418 94.2895 6.03418 92.9615C6.03418 91.2351 6.43234 89.7742 7.09595 88.579C7.75956 87.3838 8.68861 86.4542 9.8831 85.7902C10.9449 85.1262 12.2721 84.595 13.5993 84.3294C14.9265 84.0638 16.2537 83.931 17.4482 84.0638V98.9376C18.3773 98.9376 19.1736 98.8048 19.9699 98.672C20.7663 98.4064 21.4299 98.008 22.0935 97.6096C22.7571 97.0784 23.1552 96.4144 23.5534 95.6175C23.9516 94.8207 24.0843 93.8911 24.0843 92.8287C24.0843 91.5007 23.8188 90.3055 23.1552 89.3758C22.4916 88.4462 21.5626 87.915 20.2354 87.6494V84.4622C22.4916 84.8606 24.217 85.7902 25.2788 87.3838C26.2078 88.7118 26.7387 90.5711 26.7387 92.8287ZM14.5283 87.3838C13.732 87.3838 13.0684 87.6494 12.4048 87.915C11.7412 88.1806 11.0776 88.579 10.6794 89.1102C10.1485 89.6414 9.75038 90.1727 9.48494 90.8367C9.21949 91.5007 9.08677 92.2975 9.08677 93.0943C9.08677 93.8911 9.21949 94.6879 9.48494 95.3519C9.75038 96.016 10.1485 96.5472 10.6794 97.0784C11.2103 97.6096 11.7412 98.008 12.4048 98.2736C13.0684 98.5392 13.8647 98.672 14.5283 98.8048V87.3838Z" fill="#FFB32C"/>
<path d="M6.56506 80.6109V77.4236H14.3956V67.3307H6.56506V64.1434H26.3406V67.3307H17.1828V77.4236H26.3406V80.6109H6.56506Z" fill="#FFB32C"/>
<path d="M26.3406 43.8247V59.2298H6.56506V56.0425H23.4207V46.7464H6.56506V43.5591H23.4207V40.9031H32.313V43.8247H26.3406Z" fill="#FFB32C"/>
<path d="M6.56506 37.583V34.3958H22.7571L6.56506 25.0997V20.9828H26.3406V24.17H10.1485L26.3406 33.4662V37.583H6.56506Z" fill="#FFB32C"/>
<path d="M18.6428 11.8194C18.3774 13.2802 17.8465 14.3427 16.7847 15.2723C15.7229 16.2019 14.3957 16.6003 12.6703 16.6003C10.8122 16.6003 9.3523 16.0691 8.29053 14.8739C7.22876 13.8114 6.69788 12.2178 6.69788 10.3586V0.265625H26.4734V3.45288H18.9082V7.96815L26.4734 14.077V18.4595L18.6428 11.8194ZM15.8557 3.58568H9.3523V9.29617C9.3523 10.6242 9.61775 11.6866 10.2814 12.2178C10.8122 12.8818 11.6086 13.1474 12.6703 13.1474C13.7321 13.1474 14.5284 12.8818 15.0593 12.2178C15.5902 11.5538 15.8557 10.6242 15.8557 9.29617V3.58568Z" fill="#FFB32C"/>
</svg>
