<svg width="269" height="56" viewBox="0 0 269 56" fill="none" xmlns="http://www.w3.org/2000/svg">
<path d="M4.89156 9.56177C6.21877 9.42896 7.41326 9.03056 8.34231 8.63215C9.27136 8.10094 10.2004 7.30413 10.864 6.24171C11.5276 5.1793 12.0585 3.71847 12.324 1.72644H15.3765V43.8247H11.5276V12.6162H0.379028V9.96017C2.10441 9.82737 3.56434 9.69457 4.89156 9.56177Z" fill="white"/>
<path d="M30.1086 43.8247C30.1086 41.6998 30.5068 39.8406 31.1704 38.247C31.834 36.6534 32.7631 35.1925 33.8248 33.8645C34.8866 32.5365 36.2138 31.4741 37.6738 30.4117C39.1337 29.3493 40.4609 28.2868 42.0536 27.3572C43.5135 26.4276 44.9734 25.3652 46.4334 24.3028C47.8933 23.2404 49.2205 22.1779 50.415 20.9827C51.6095 19.7875 52.4058 18.5923 53.0695 17.3971C53.6003 16.2018 53.9985 14.741 53.9985 13.0146C53.9985 11.6866 53.7331 10.4914 53.2022 9.42893C52.6713 8.36652 52.0077 7.4369 51.2114 6.77289C50.415 5.97608 49.3533 5.44487 48.1588 5.04646C46.9643 4.64806 45.7698 4.51525 44.5753 4.51525C42.8499 4.51525 41.39 4.78086 40.1955 5.44487C39.001 6.10888 37.9392 6.90569 37.2756 7.96811C36.4793 9.03053 35.9484 10.2257 35.6829 11.6866C35.0193 13.2802 34.8866 14.741 34.8866 16.3346H31.0377C31.0377 14.2098 31.3031 12.2178 31.834 10.3585C32.3649 8.49932 33.1612 6.90569 34.3557 5.57767C35.4175 4.24965 36.8774 3.18723 38.6028 2.52322C40.3282 1.72641 42.319 1.328 44.5753 1.328C46.4334 1.328 48.1588 1.59361 49.7514 2.12482C51.3441 2.65602 52.6713 3.32003 53.8658 4.38245C55.0603 5.31207 55.9893 6.64009 56.6529 8.10091C57.3165 9.56174 57.582 11.2882 57.582 13.2802C57.582 15.0066 57.3165 16.6002 56.6529 18.0611C56.1221 19.5219 55.3257 20.8499 54.2639 22.0451C53.3349 23.2404 52.1404 24.3028 50.9459 25.3652C49.6187 26.4276 48.2915 27.3572 46.9643 28.154C45.9025 28.818 44.8407 29.6149 43.3808 30.4117C42.0536 31.2085 40.7264 32.1381 39.3991 33.2005C38.0719 34.2629 37.0102 35.3253 36.0811 36.5206C35.1521 37.7158 34.4884 39.0438 34.223 40.3718H57.582V43.8247H30.1086Z" fill="white"/>
<path d="M81.6045 12.749H85.4534V25.8964H103.105V12.749H106.954V43.8247H103.105V29.2165H85.4534V43.8247H81.6045V12.749Z" fill="white"/>
<path d="M126.995 44.6215C124.606 44.6215 122.483 44.2231 120.757 43.2935C118.899 42.4967 117.439 41.3015 116.112 39.8406C114.918 38.3798 113.989 36.6534 113.325 34.6614C112.661 32.6693 112.396 30.5445 112.396 28.2869C112.396 26.0292 112.661 24.0372 113.325 21.9124C113.989 19.9203 114.918 18.1939 116.112 16.7331C117.307 15.2723 118.899 14.077 120.757 13.1474C122.615 12.2178 124.606 11.8194 126.995 11.8194C129.384 11.8194 131.508 12.2178 133.233 13.1474C135.091 14.077 136.551 15.2723 137.878 16.7331C139.073 18.1939 140.002 19.9203 140.666 21.9124C141.329 23.9044 141.595 26.0292 141.595 28.2869C141.595 30.5445 141.329 32.6693 140.666 34.6614C140.002 36.6534 139.073 38.3798 137.878 39.8406C136.684 41.3015 135.091 42.4967 133.233 43.2935C131.508 44.2231 129.384 44.6215 126.995 44.6215ZM126.995 41.4343C128.853 41.4343 130.313 41.0359 131.773 40.2391C133.1 39.4422 134.295 38.5126 135.224 37.1846C136.153 35.9894 136.817 34.5286 137.215 32.9349C137.613 31.3413 137.878 29.7477 137.878 28.1541C137.878 26.5604 137.613 24.9668 137.215 23.3732C136.817 21.7796 136.02 20.4515 135.224 19.1235C134.295 17.9283 133.233 16.8659 131.773 16.0691C130.446 15.2723 128.853 14.8738 126.995 14.8738C125.137 14.8738 123.677 15.2723 122.217 16.0691C120.89 16.8659 119.696 17.7955 118.767 19.1235C117.837 20.3187 117.174 21.7796 116.776 23.3732C116.378 24.9668 116.112 26.5604 116.112 28.1541C116.112 29.7477 116.378 31.3413 116.776 32.9349C117.174 34.5286 117.97 35.8566 118.767 37.1846C119.696 38.3798 120.757 39.4422 122.217 40.2391C123.677 41.0359 125.27 41.4343 126.995 41.4343Z" fill="white"/>
<path d="M155.132 31.2085C152.345 30.9429 150.221 30.1461 148.496 28.4197C146.903 26.8261 146.107 24.7012 146.107 21.9124C146.107 20.5844 146.373 19.2563 146.771 18.1939C147.169 16.9987 147.832 16.0691 148.629 15.2723C149.425 14.4755 150.354 13.8114 151.549 13.413C152.743 13.0146 154.07 12.749 155.398 12.749H170.395V43.8247H166.546V31.4741H159.247L148.629 43.8247H143.718L155.132 31.2085ZM166.812 28.2869V15.9363H156.459C154.336 15.9363 152.743 16.4675 151.681 17.6627C150.62 18.8579 149.956 20.3187 149.956 22.0452C149.956 23.9044 150.487 25.3652 151.681 26.4276C152.743 27.6229 154.469 28.1541 156.459 28.1541H166.812V28.2869Z" fill="white"/>
<path d="M191.1 44.6215C188.313 44.6215 185.924 44.0903 184.065 43.0279C182.207 41.9655 180.747 40.6375 179.686 38.911C178.624 37.1846 177.828 35.1926 177.429 32.9349C177.031 30.6773 176.766 28.4197 176.766 26.0292C176.766 24.5684 176.766 22.9748 176.898 21.3811C177.031 19.7875 177.164 18.1939 177.562 16.6003C177.828 15.0066 178.226 13.5458 178.757 12.085C179.287 10.6242 179.818 9.29615 180.615 8.23373C182.075 6.1089 183.667 4.51527 185.658 3.58566C187.649 2.65604 190.038 2.12483 193.091 1.85923L196.01 1.72643C197.603 1.59363 198.665 1.46082 199.196 1.19522C199.727 0.929615 200.125 0.531209 200.39 0H204.637C204.372 1.85923 203.443 3.05445 202.248 3.71846C200.921 4.38247 198.93 4.78088 196.276 4.91368L191.631 5.31209C188.047 5.57769 185.393 6.77291 183.535 9.16335C181.676 11.421 180.482 15.0066 179.686 19.7875H179.818C180.88 17.6627 182.34 16.0691 184.464 14.741C186.454 13.413 188.843 12.8818 191.365 12.8818C193.489 12.8818 195.347 13.2802 197.072 13.9442C198.798 14.6082 200.258 15.6707 201.452 17.1315C202.646 18.4595 203.708 20.1859 204.372 22.178C205.035 24.17 205.434 26.2948 205.434 28.8181C205.434 31.2085 205.035 33.4661 204.372 35.4582C203.708 37.4502 202.779 39.1766 201.452 40.5047C200.125 41.9655 198.665 43.0279 196.939 43.6919C195.214 44.2231 193.223 44.6215 191.1 44.6215ZM191.1 41.4343C192.56 41.4343 194.02 41.1687 195.347 40.5047C196.674 39.8406 197.736 39.0438 198.665 37.8486C199.594 36.6534 200.39 35.3254 200.921 33.7317C201.452 32.1381 201.717 30.4117 201.717 28.5525C201.717 26.6932 201.452 24.9668 200.921 23.3732C200.39 21.7795 199.727 20.4515 198.665 19.3891C197.736 18.3267 196.674 17.3971 195.347 16.8659C194.02 16.2019 192.692 15.9363 191.232 15.9363C189.64 15.9363 188.18 16.2019 186.853 16.8659C185.525 17.5299 184.464 18.3267 183.402 19.3891C182.473 20.4515 181.676 21.7795 181.146 23.3732C180.615 24.9668 180.349 26.6932 180.349 28.5525C180.349 30.4117 180.615 32.2709 181.146 33.7317C181.676 35.3254 182.34 36.6534 183.402 37.8486C184.331 39.0438 185.525 39.8406 186.72 40.5047C188.18 41.1687 189.507 41.4343 191.1 41.4343Z" fill="white"/>
<path d="M211.141 12.749H214.591V18.5923H214.724C215.653 16.4675 216.98 14.741 218.971 13.5458C220.962 12.3506 223.218 11.8194 225.74 11.8194C228.129 11.8194 230.12 12.2178 231.845 13.1474C233.571 14.077 235.03 15.2723 236.225 16.7331C237.419 18.1939 238.216 19.9203 238.747 21.9124C239.278 23.9044 239.543 26.0292 239.543 28.1541C239.543 30.4117 239.278 32.5365 238.747 34.5286C238.216 36.5206 237.287 38.247 236.225 39.7078C235.03 41.1687 233.571 42.3639 231.845 43.2935C230.12 44.0903 227.996 44.6215 225.74 44.6215C224.546 44.6215 223.484 44.4887 222.289 44.2231C221.227 43.9575 220.166 43.5591 219.237 42.8951C218.308 42.3639 217.379 41.5671 216.715 40.7703C215.919 39.9734 215.388 38.911 214.99 37.8486H214.857V55.1129H211.008V12.749H211.141ZM225.74 41.4343C227.598 41.4343 229.058 41.0359 230.385 40.239C231.712 39.4422 232.774 38.5126 233.571 37.1846C234.367 35.9894 235.03 34.5286 235.429 32.9349C235.827 31.3413 235.96 29.7477 235.96 28.1541C235.96 26.5604 235.827 24.9668 235.429 23.3732C235.03 21.7796 234.5 20.3187 233.571 19.1235C232.774 17.9283 231.712 16.8659 230.385 16.0691C229.058 15.2723 227.598 14.8738 225.74 14.8738C223.616 14.8738 221.891 15.2723 220.431 15.9363C219.104 16.6003 217.909 17.6627 217.113 18.8579C216.317 20.0531 215.653 21.514 215.388 23.1076C214.99 24.7012 214.857 26.4276 214.857 28.1541C214.857 29.7477 214.99 31.3413 215.388 32.9349C215.786 34.5286 216.45 35.8566 217.246 37.1846C218.042 38.3798 219.237 39.4422 220.564 40.239C222.024 41.0359 223.749 41.4343 225.74 41.4343Z" fill="white"/>
<path d="M253.479 31.2085C250.692 30.9429 248.568 30.1461 246.843 28.4197C245.25 26.8261 244.454 24.7012 244.454 21.9124C244.454 20.5844 244.719 19.2563 245.117 18.1939C245.515 16.9987 246.179 16.0691 246.975 15.2723C247.772 14.4755 248.701 13.8114 249.895 13.413C251.09 13.0146 252.417 12.749 253.744 12.749H268.742V43.8247H264.893V31.4741H257.593L246.975 43.8247H242.065L253.479 31.2085ZM265.025 28.2869V15.9363H254.673C252.55 15.9363 250.957 16.4675 249.895 17.6627C248.833 18.8579 248.17 20.3187 248.17 22.0452C248.17 23.9044 248.701 25.3652 249.895 26.4276C250.957 27.6229 252.682 28.1541 254.673 28.1541H265.025V28.2869Z" fill="white"/>
</svg>
