<svg width="76" height="23" viewBox="0 0 76 23" fill="none" xmlns="http://www.w3.org/2000/svg">
<path d="M38.8722 11.1262C38.8722 13.3838 38.0759 14.4462 36.3505 14.4462C34.6251 14.4462 33.8288 13.3838 33.8288 11.1262V4.88446H31.5725V11.3918C31.5725 14.7118 33.2979 16.5711 36.3505 16.5711C39.4031 16.5711 41.1285 14.7118 41.1285 11.3918V4.88446H38.8722V11.1262Z" fill="white"/>
<path d="M51.7462 10.4622C51.7462 13.251 50.0208 14.4462 48.1627 14.4462C45.9064 14.4462 44.7119 12.4542 44.7119 10.4622C44.7119 7.80614 46.4373 6.47812 48.1627 6.47812C50.2862 6.47812 51.7462 8.20455 51.7462 10.4622ZM48.6936 4.48608C47.1009 4.48608 45.7737 5.28291 44.8446 6.61093V4.88449H42.5884V21.352H44.8446V14.7118C45.7737 16.0399 47.1009 16.7039 48.5609 16.7039C50.1535 16.7039 51.6134 16.0399 52.5425 14.8447C53.4715 13.7822 54.0024 12.1886 54.0024 10.595C54.0024 9.00137 53.4715 7.54053 52.5425 6.47812C51.6134 5.15009 50.1535 4.48608 48.6936 4.48608Z" fill="white"/>
<path d="M20.0257 5.01731C19.3621 4.6189 18.8312 4.48608 18.1676 4.48608C16.8404 4.48608 15.6459 5.2829 15.115 6.47812V4.75168H12.8588V16.1727H15.115V10.595C15.115 8.73577 15.3805 6.74372 17.6367 6.74372C18.0349 6.74372 18.3003 6.74373 18.5658 6.87653L20.0257 5.01731Z" fill="white"/>
<path d="M9.27534 4.75168V6.61093C8.34628 5.2829 7.01907 4.48608 5.42641 4.48608C3.83375 4.48608 2.50654 5.15011 1.57749 6.34533C0.64844 7.40774 0.117554 8.86855 0.117554 10.4622C0.117554 12.0558 0.64844 13.6494 1.57749 14.7118C2.50654 15.9071 3.96648 16.5711 5.55913 16.5711C7.01907 16.5711 8.34628 15.7743 9.27534 14.5791V16.3055C9.27534 18.2975 8.87717 20.2895 6.09002 20.2895C4.0992 20.2895 2.77198 19.0943 2.77198 17.2351V17.1023H0.64844V17.2351C0.64844 20.2895 2.9047 22.4144 6.09002 22.4144C11.0007 22.4144 11.6643 18.8287 11.6643 15.6415V4.88449H9.27534V4.75168ZM5.82458 14.4462C3.56831 14.4462 2.37382 12.4542 2.37382 10.4622C2.37382 7.80614 4.0992 6.47812 5.82458 6.47812C7.94812 6.47812 9.40806 8.07174 9.40806 10.4622C9.27534 13.251 7.54996 14.4462 5.82458 14.4462Z" fill="white"/>
<path d="M74.707 9.39977C73.6452 9.79818 72.5834 10.0638 71.7871 10.0638C71.1235 10.0638 70.7253 9.93099 70.4599 9.53258C70.1945 9.13417 70.1945 8.60296 70.3272 7.80615L70.9908 4.8845C71.2562 3.42367 71.1235 2.36126 70.5926 1.69725C70.0617 1.03324 69.2654 0.767617 68.2036 0.767617C67.0091 0.767617 65.9474 1.16602 64.8856 2.09564C64.4874 1.29883 63.5584 0.767617 62.3639 0.767617C61.3021 0.767617 60.3731 1.16603 59.444 1.83004C59.0459 1.16603 57.9841 0.634827 56.7896 0.634827C56.2587 0.634827 55.5951 0.767625 55.0642 0.900427H54.9315L54.5333 3.02527L55.0642 2.75965C55.8605 2.49405 56.5241 2.49405 56.7896 2.75965C57.055 3.02526 57.055 3.42368 56.9223 3.95489L55.4624 10.1966H57.9841L59.0459 5.81411C59.5767 3.68927 60.5058 2.62686 61.833 2.62686C62.2312 2.62686 62.4966 2.75967 62.6293 3.02527C62.8948 3.29088 62.8948 3.82208 62.7621 4.6189L61.4348 10.1966H63.9565L65.151 5.01731C65.4165 3.68928 66.611 2.62686 67.8055 2.62686C68.2036 2.62686 68.4691 2.75967 68.6018 3.02527C68.8672 3.29088 68.8672 3.82208 68.7345 4.6189L68.0709 7.80615C67.8055 9.13417 67.9382 10.1966 68.6018 10.8606C69.2654 11.6574 70.3272 12.0558 71.6544 12.0558C72.7162 12.0558 73.9107 11.7902 75.1052 11.259L75.2379 11.1262L75.7688 8.73576L74.707 9.39977Z" fill="white"/>
<path d="M30.2454 8.07174C29.9799 7.27492 29.5818 6.74372 29.0509 6.21252C28.52 5.68131 27.9891 5.28291 27.1928 5.01731C26.5292 4.7517 25.6001 4.6189 24.6711 4.6189C23.742 4.6189 22.9457 4.7517 22.1494 5.01731C21.4858 5.28291 20.8221 5.68131 20.2913 6.21252C19.7604 6.74372 19.3622 7.40773 19.0968 8.07174C18.8313 8.86855 18.6986 9.66536 18.6986 10.4622C18.6986 11.3918 18.8313 12.1886 19.0968 12.9854C19.3622 13.7822 19.7604 14.3134 20.2913 14.8446C20.8221 15.3759 21.353 15.7742 22.1494 16.0399C22.813 16.3055 23.742 16.4383 24.6711 16.4383C25.6001 16.4383 26.3964 16.3055 27.1928 16.0399C27.8564 15.7742 28.52 15.3759 29.0509 14.8446C29.5818 14.3134 29.9799 13.6494 30.2454 12.9854C30.5108 12.1886 30.6435 11.3918 30.6435 10.4622C30.6435 9.66536 30.5108 8.73574 30.2454 8.07174ZM26.3964 14.3134C25.9983 14.579 25.4674 14.7118 24.8038 14.7118C24.2729 14.7118 23.742 14.579 23.2111 14.3134C22.813 14.0478 22.4148 13.7822 22.1494 13.3838C21.8839 12.9854 21.6185 12.587 21.4858 12.0558C21.353 11.5246 21.353 10.9934 21.353 10.4622C21.353 9.93097 21.353 9.39977 21.4858 9.00137C21.6185 8.47016 21.8839 8.07175 22.1494 7.67335C22.4148 7.27494 22.813 7.00932 23.2111 6.74372C23.6093 6.47811 24.1402 6.34533 24.8038 6.34533C25.3347 6.34533 25.8656 6.47811 26.3964 6.74372C26.7946 7.00932 27.1928 7.27494 27.4582 7.67335C27.7237 8.07175 27.9891 8.47016 28.1218 9.00137C28.2545 9.53257 28.2545 10.0638 28.2545 10.4622C28.2545 10.9934 28.2545 11.5246 28.1218 12.0558C27.9891 12.587 27.7237 12.9854 27.4582 13.3838C27.1928 13.7822 26.7946 14.1806 26.3964 14.3134Z" fill="white"/>
</svg>
