<svg width="102" height="30" viewBox="0 0 102 30" fill="none" xmlns="http://www.w3.org/2000/svg">
<g opacity="0.5">
<path opacity="0.5" d="M85.6963 29.4688L82.6437 17.7822L88.6162 28.2736L88.4834 28.4064C87.6871 28.9376 86.758 29.2032 85.829 29.4688H85.6963ZM83.5727 20.0398L85.9617 29.0704C86.7581 28.8048 87.5544 28.5392 88.218 28.1408L83.5727 20.0398Z" fill="white"/>
<path opacity="0.5" d="M80.3874 29.4688H80.2547C79.3256 29.2031 78.5293 28.8047 77.6003 28.4063L77.4675 28.2735L82.9091 18.8446H83.1746V19.1102L80.3874 29.4688ZM77.9984 28.1407C78.662 28.5391 79.4584 28.8047 80.2547 29.0703L82.6437 20.0398L77.9984 28.1407Z" fill="white"/>
<path opacity="0.5" d="M83.0419 29.7344H82.9092V17.6494L85.9618 29.336H85.8291C84.9 29.7344 83.971 29.7344 83.0419 29.7344ZM83.1746 20.1727V29.4688C83.971 29.4688 84.7673 29.336 85.5636 29.2032L83.1746 20.1727Z" fill="white"/>
<path opacity="0.5" d="M83.042 29.7344C82.1129 29.7344 81.1838 29.6016 80.2548 29.336H80.1221L83.1747 17.6494V29.7344H83.042ZM80.5202 29.2032C81.3166 29.336 82.1129 29.4688 82.9092 29.4688V20.1727L80.5202 29.2032Z" fill="white"/>
<path opacity="0.5" d="M88.3508 28.4064L82.9092 18.9774L83.0419 18.7118L90.8725 26.5472L90.7398 26.68C90.0762 27.344 89.2798 27.8752 88.4835 28.4064H88.3508ZM83.8382 19.907L88.4835 28.008C89.1471 27.6096 89.8107 27.0784 90.3416 26.5472L83.8382 19.907Z" fill="white"/>
<path opacity="0.5" d="M75.4768 26.68C74.6805 25.8831 74.1496 25.0864 73.6187 24.2895L73.486 24.1567L82.7764 18.7118L82.9092 18.579L83.0419 18.9775H82.9092L75.4768 26.68ZM74.0169 24.2895C74.415 24.9535 74.9459 25.6176 75.4768 26.2816L81.9801 19.7743L74.0169 24.2895Z" fill="white"/>
<path opacity="0.5" d="M83.0419 19.1102L73.486 13.6653L73.6187 13.5325C74.1496 12.7357 74.6805 11.9389 75.3441 11.2749L75.4768 11.1421L83.1746 18.8446L83.0419 19.1102ZM74.0169 13.5325L82.1128 18.1806L75.4768 11.6733C74.9459 12.2045 74.415 12.8685 74.0169 13.5325Z" fill="white"/>
<path opacity="0.5" d="M83.8382 19.907L83.0418 19.1102L83.1746 18.9774L83.0418 19.1102L75.344 11.4077L75.4767 11.2749C76.1403 10.6109 76.9367 10.0797 77.733 9.54846L77.8657 9.41565L83.8382 19.907ZM75.7422 11.4077L82.2455 17.915L77.6003 9.81406C76.9366 10.3453 76.273 10.8765 75.7422 11.4077Z" fill="white"/>
<path opacity="0.5" d="M83.5728 20.0399L77.6003 9.54848L77.7331 9.41567C78.5294 8.88446 79.4585 8.61888 80.3875 8.35327H80.5202L83.5728 20.0399ZM77.9985 9.81408L82.6438 17.915L80.2548 8.88447C79.4584 9.01727 78.6621 9.41568 77.9985 9.81408Z" fill="white"/>
<path opacity="0.5" d="M83.7055 19.1102H83.0419L72.5569 16.3214V16.1886C72.8223 15.259 73.2205 14.4621 73.6187 13.5325L73.7514 13.3997L83.7055 19.1102ZM72.9551 16.0558L81.9801 18.4462L73.8841 13.7981C73.4859 14.5949 73.2205 15.2589 72.9551 16.0558Z" fill="white"/>
<path opacity="0.5" d="M83.0419 19.1102H72.1587V18.9774C72.1587 18.0478 72.2914 17.1182 72.5569 16.1886V16.0558L83.3074 18.9774L83.0419 19.1102ZM72.5569 18.8446H81.8474L72.8223 16.4542C72.6896 17.1182 72.5569 18.0478 72.5569 18.8446Z" fill="white"/>
<path opacity="0.5" d="M77.7331 28.4064L77.6004 28.2736C76.8041 27.7424 76.0078 27.2112 75.3442 26.5472L75.2114 26.4144L82.9092 18.7118H83.4401L83.1747 18.9774L77.7331 28.4064ZM75.7423 26.5472C76.2732 27.0784 76.9368 27.6096 77.6004 28.008L82.2456 19.907L75.7423 26.5472Z" fill="white"/>
<path opacity="0.5" d="M73.7514 24.5551L73.6187 24.4223C73.0878 23.6255 72.8223 22.6959 72.5569 21.7663V21.6335L83.0419 18.8446H83.7055L83.1746 19.1102L73.7514 24.5551ZM72.9551 21.8991C73.2205 22.6959 73.4859 23.4927 73.8841 24.1567L81.9801 19.5086L72.9551 21.8991Z" fill="white"/>
<path opacity="0.5" d="M72.6897 21.899V21.7662C72.4242 20.8366 72.2915 19.907 72.2915 18.9774V18.8446H84.3691L72.6897 21.899ZM72.5569 19.1102C72.5569 19.907 72.6897 20.7038 72.8224 21.5006L81.8474 19.1102H72.5569Z" fill="white"/>
<path opacity="0.5" d="M82.6437 20.0399L85.6963 8.35327H85.829C86.758 8.61888 87.5544 9.01727 88.4834 9.41567L88.6162 9.54848L82.6437 20.0399ZM85.9617 8.88447L83.5727 17.915L88.218 9.81408C87.4217 9.41568 86.7581 9.01727 85.9617 8.88447Z" fill="white"/>
<path opacity="0.5" d="M82.2456 19.907L88.2181 9.41565L88.3508 9.54846C89.1471 10.0797 89.9435 10.6109 90.6071 11.2749L90.7398 11.4077L82.2456 19.907ZM88.4835 9.94687L83.8383 18.0478L90.3416 11.5405C89.8107 10.8765 89.1471 10.3453 88.4835 9.94687Z" fill="white"/>
<path opacity="0.5" d="M90.607 26.6799L83.0419 19.1102L83.3073 18.8446C83.9709 19.5086 84.6345 20.0398 85.4308 20.4382C86.2272 20.8366 87.0235 21.235 87.9526 21.5007L92.5978 24.1567L92.4651 24.2895C91.9342 25.2191 91.4033 26.0159 90.607 26.6799ZM85.0327 20.7038L90.607 26.2815C91.1379 25.7503 91.6687 25.0863 92.0669 24.4223L87.8198 21.8991C86.8908 21.6335 86.0944 21.235 85.1654 20.8366C85.1654 20.7038 85.0327 20.7038 85.0327 20.7038Z" fill="white"/>
<path opacity="0.5" d="M92.3324 24.5552L86.6254 21.2351L87.8198 21.5007C88.7489 21.7663 89.5452 21.8991 90.4743 21.8991C91.4033 21.8991 92.3324 21.7663 93.1287 21.5007L93.3941 21.3679L93.2614 21.6335C92.996 22.5631 92.5978 23.36 92.1997 24.2896L92.3324 24.5552ZM88.7489 22.0319L92.1997 24.024C92.5978 23.3599 92.8633 22.6959 93.1287 21.8991C92.3324 22.0319 91.4033 22.1647 90.607 22.1647C89.9434 22.2975 89.4125 22.1647 88.7489 22.0319Z" fill="white"/>
<path opacity="0.5" d="M82.9092 20.1727V8.08765H83.0419C83.971 8.08765 84.9 8.22045 85.8291 8.48606H85.9618L82.9092 20.1727ZM83.1746 8.48606V17.7822L85.5636 8.75166C84.7673 8.61886 83.971 8.48606 83.1746 8.48606Z" fill="white"/>
<path opacity="0.5" d="M83.1747 20.1727L80.1221 8.48606H80.2548C81.1838 8.22045 82.1129 8.08765 83.042 8.08765H83.1747V20.1727ZM80.5202 8.75166L82.9092 17.7822V8.48606C82.1129 8.48606 81.3166 8.61886 80.5202 8.75166Z" fill="white"/>
<path opacity="0.5" d="M90.607 22.2975H90.4742V10.2125L93.5268 21.8991H93.3941C92.4651 22.1647 91.536 22.2975 90.607 22.2975ZM90.7397 12.603V21.8991C91.536 21.8991 92.3323 21.7663 93.1287 21.6335L90.7397 12.603Z" fill="white"/>
<path opacity="0.5" d="M93.2614 21.899L90.2089 10.2125L96.1813 20.7038L96.0486 20.8366C95.2523 21.3678 94.3232 21.6334 93.3942 21.899H93.2614ZM91.0052 12.603L93.3942 21.6334C94.1905 21.3678 94.9868 21.1022 95.6504 20.7038L91.0052 12.603Z" fill="white"/>
<path opacity="0.5" d="M90.7397 22.2974H90.607C89.6779 22.2974 88.7489 22.1646 87.8198 21.899H87.6871L90.607 11.1421L90.8724 11.4077V11.5405V22.2974H90.7397ZM88.0853 21.6334C88.8816 21.7662 89.6779 21.899 90.4743 21.899V12.6029L88.0853 21.6334Z" fill="white"/>
<path opacity="0.5" d="M87.9526 21.899H87.8199C86.8908 21.6334 86.0945 21.235 85.1654 20.8366L85.0327 20.7038L91.0052 10.2125L87.9526 21.899ZM85.4309 20.571C86.0945 20.9694 86.8908 21.235 87.6872 21.5006L90.0761 12.4701L85.4309 20.571Z" fill="white"/>
<path opacity="0.5" d="M85.2982 20.8367L85.1655 20.7039C84.3692 20.1727 83.5728 19.6415 82.9092 18.9775L82.7765 18.8447L91.2707 10.3453L85.2982 20.8367ZM83.3074 18.9775C83.8383 19.5087 84.5019 20.0399 85.2982 20.4383L89.9435 12.3374L83.3074 18.9775Z" fill="white"/>
<path opacity="0.5" d="M100.959 14.3293L90.4743 11.5405H90.3416V11.1421H90.4743H101.225V11.2749C101.225 12.2045 101.092 13.1341 100.827 14.0637L100.959 14.3293ZM91.8015 11.5405L100.827 13.9309C100.959 13.1341 101.092 12.3373 101.092 11.5405H91.8015Z" fill="white"/>
<path opacity="0.5" d="M90.607 11.6734L90.3416 11.5406L93.1287 0.916382H93.2614C94.1905 1.18199 94.9868 1.5804 95.9158 1.9788L96.0486 2.11159L90.607 11.6734ZM93.5269 1.31479L91.1379 10.3453L95.7831 2.2444C94.9868 1.846 94.1905 1.5804 93.5269 1.31479Z" fill="white"/>
<path opacity="0.5" d="M90.4742 11.9389V0.517944H90.607C91.536 0.517944 92.4651 0.650751 93.3941 0.916355H93.5268L90.7397 11.4077L90.4742 11.9389ZM90.7397 0.916355V10.2125L93.1287 1.18195C92.3323 1.04915 91.536 0.916355 90.7397 0.916355Z" fill="white"/>
<path opacity="0.5" d="M90.7397 12.6029L87.6871 0.916354H87.8198C88.7489 0.65075 89.6779 0.517944 90.607 0.517944H90.7397V12.6029ZM88.0853 1.18195L90.4743 10.2125V0.916354C89.6779 0.916354 88.7489 1.04915 88.0853 1.18195Z" fill="white"/>
<path opacity="0.5" d="M90.0762 12.0717L95.9159 1.97876L96.0486 2.11155C96.845 2.64276 97.6413 3.17397 98.3049 3.83798L98.4376 3.97079L90.7398 11.6733L90.0762 12.0717ZM96.0486 2.37717L91.4034 10.4781L97.9067 3.97079C97.3759 3.30678 96.7122 2.77558 96.0486 2.37717Z" fill="white"/>
<path opacity="0.5" d="M90.607 11.5405H90.2089L98.1722 3.57239L98.3049 3.7052C98.9685 4.36921 99.4994 5.16602 100.03 5.96283L100.163 6.09562L90.607 11.5405ZM98.1722 4.10359L91.5361 10.7437L99.6321 6.09562C99.2339 5.29881 98.7031 4.6348 98.1722 4.10359Z" fill="white"/>
<path opacity="0.5" d="M99.8975 16.9854L90.4743 11.5405H90.3416V11.1421L90.607 11.2749L101.092 14.0637V14.1965C100.827 15.1261 100.428 15.9229 100.03 16.8525L99.8975 16.9854ZM91.6688 11.9389L99.7648 16.5869C100.163 15.9229 100.428 15.1261 100.694 14.3293L91.6688 11.9389Z" fill="white"/>
<path opacity="0.5" d="M90.0762 11.5406L90.4743 11.275L100.959 8.48608V8.6189C101.225 9.54852 101.357 10.4781 101.357 11.4077V11.5406H90.0762ZM100.827 8.8845L91.8016 11.275H101.092C101.092 10.4781 100.959 9.68132 100.827 8.8845Z" fill="white"/>
<path opacity="0.5" d="M89.4126 11.9389L99.8976 5.96277L100.03 6.09556C100.561 6.89238 100.827 7.822 101.092 8.75162V8.88443L89.4126 11.9389ZM99.7648 6.22837L91.6689 10.8765L100.694 8.48602C100.428 7.6892 100.163 7.02519 99.7648 6.22837Z" fill="white"/>
<path opacity="0.5" d="M91.4034 12.3373L82.9092 3.83798L83.0419 3.70519C83.7055 3.04118 84.5018 2.50997 85.2982 1.97876L85.4309 1.84595L91.4034 12.3373ZM83.3073 3.83798L89.8107 10.3453L85.1654 2.24436C84.5018 2.77557 83.8382 3.30677 83.3073 3.83798Z" fill="white"/>
<path opacity="0.5" d="M91.0052 12.603L85.0327 2.11159L85.1654 1.9788C85.9618 1.44759 86.8908 1.18199 87.8199 0.916382H87.9526V1.04919L91.0052 12.603ZM85.4309 2.2444L90.0761 10.3453L87.6872 1.31479C86.8908 1.5804 86.2272 1.846 85.4309 2.2444Z" fill="white"/>
<path opacity="0.5" d="M90.4743 11.5405C89.8107 10.8765 89.1471 10.3453 88.3508 9.9469C87.5545 9.5485 86.7581 9.15009 85.8291 8.88448L81.1838 6.22844L81.3166 6.09563C81.8475 5.29881 82.3783 4.502 83.042 3.83799L83.1747 3.7052L90.8725 11.4077L90.4743 11.5405ZM85.8291 8.48607C86.7581 8.75168 87.5545 9.15009 88.4835 9.54849C88.4835 9.54849 88.6163 9.5485 88.6163 9.6813L83.042 4.10359C82.5111 4.6348 81.9802 5.29882 81.582 5.96284L85.8291 8.48607Z" fill="white"/>
<path opacity="0.5" d="M86.8909 9.15002L85.6964 8.88442C84.7673 8.61882 83.8383 8.48601 83.042 8.48601C82.1129 8.48601 81.1839 8.61882 80.3875 8.88442L80.1221 9.01723L80.2548 8.75161C80.5202 7.82199 80.9184 7.02518 81.3166 6.09556L81.4493 5.96277L86.8909 9.15002ZM81.4493 6.22837C81.0511 6.89238 80.7857 7.5564 80.5202 8.35322C81.3166 8.22042 82.2456 8.0876 83.042 8.0876C83.7056 8.0876 84.2364 8.08761 84.7673 8.22041L81.4493 6.22837Z" fill="white"/>
<path opacity="0.5" d="M98.1721 19.243L90.4742 11.5405L90.607 11.2749L100.163 16.7198L100.03 16.8526C99.4993 17.6494 98.9684 18.4462 98.1721 19.243ZM91.536 12.2045L98.1721 18.8446C98.703 18.3134 99.2339 17.6494 99.632 16.8526L91.536 12.2045Z" fill="white"/>
<path opacity="0.5" d="M95.9159 20.8367L89.9435 10.3453L98.4376 18.8447L98.3049 18.9775C97.6413 19.6415 96.845 20.1727 96.0486 20.7039L95.9159 20.8367ZM91.4034 12.3374L96.0486 20.4383C96.7122 20.0399 97.3759 19.5087 97.9067 18.9775L91.4034 12.3374Z" fill="white"/>
</g>
<path d="M9.11603 18.9778H7.65609V14.0641L5.00167 17.2514C4.86894 17.3842 4.73622 17.3842 4.6035 17.2514L1.94907 14.0641V18.9778H0.489136V12.2049C0.489136 11.8065 0.887298 11.4081 1.28546 11.4081C1.5509 11.4081 1.81635 11.5409 1.94907 11.8065L4.73622 15.2594L7.65609 11.6737C7.78882 11.5409 8.05425 11.4081 8.18697 11.4081C8.58514 11.4081 8.98331 11.8065 8.98331 12.2049V18.9778H9.11603Z" fill="white"/>
<path d="M46.9417 18.9774H48.667L49.5961 16.9854H52.9141L53.9759 18.9774H55.7013L51.9851 11.8061C51.8523 11.5405 51.5869 11.4077 51.3215 11.4077C51.056 11.4077 50.7906 11.5405 50.6579 11.8061L46.9417 18.9774ZM51.1887 13.5325L52.2505 15.6574H50.127L51.1887 13.5325Z" fill="white"/>
<path d="M21.1937 18.9774H20.132L15.0886 13.9309V18.9774H13.6287V12.2045C13.6287 11.8061 14.0268 11.4077 14.425 11.4077C14.6904 11.4077 14.8231 11.5405 15.0886 11.6733L19.7338 16.3214V11.8061C19.7338 11.5405 19.9993 11.2749 20.2647 11.2749H20.7956C21.061 11.2749 21.3265 11.5405 21.3265 11.8061V18.9774H21.1937Z" fill="white"/>
<path d="M27.4315 11.5405C26.9006 11.4077 26.3698 11.4077 25.5734 11.4077H23.4499C23.0517 11.4077 22.6536 11.8061 22.6536 12.2045V18.9774H25.1753C25.9716 18.9774 26.6352 18.8446 27.2988 18.7118C29.2896 18.1806 30.3514 16.8526 30.3514 15.1261C30.3514 13.2669 29.2896 12.0717 27.4315 11.5405ZM27.0334 17.3838C26.5025 17.5166 25.9716 17.5166 25.308 17.5166H24.3789V12.8685H25.5734C26.237 12.8685 26.7679 12.8685 27.1661 13.0013C28.3606 13.2669 28.8915 13.9309 28.8915 15.1261C28.7587 16.1886 28.2279 16.9854 27.0334 17.3838Z" fill="white"/>
<path d="M61.0101 15.923C62.2046 15.5246 62.7355 14.8606 62.7355 13.6653C62.7355 12.2045 61.541 11.2749 59.6829 11.2749H57.1612C56.763 11.2749 56.3649 11.6733 56.3649 12.0717V18.8446H57.8248V16.0558H59.152L61.0101 18.8446H62.8682L61.0101 15.923ZM57.9575 14.7277V12.8685H59.8156C60.3465 12.8685 61.1429 13.0013 61.1429 13.7981C61.1429 14.1965 61.0101 14.7277 59.5502 14.7277H57.9575Z" fill="white"/>
<path d="M10.576 18.9774H12.0359V11.9389C12.0359 11.6733 11.7705 11.4077 11.505 11.4077H10.9741C10.7087 11.4077 10.4432 11.6733 10.4432 11.9389V18.9774H10.576Z" fill="white"/>
<path d="M46.0126 18.9774H44.4199V15.7901H40.4383V18.9774H38.9784V11.9389C38.9784 11.6733 39.2438 11.4077 39.5093 11.4077H40.0402C40.3056 11.4077 40.571 11.6733 40.571 11.9389V14.4621H44.5527V11.9389C44.5527 11.6733 44.8181 11.4077 45.0835 11.4077H45.6144C45.8799 11.4077 46.1453 11.6733 46.1453 11.9389V18.9774H46.0126Z" fill="white"/>
<path d="M34.7313 14.4621C33.6695 14.3293 33.0059 14.1965 33.0059 13.5325C33.0059 13.0013 33.5368 12.7357 34.4659 12.7357C35.5276 12.7357 36.324 13.1341 36.7221 13.2669C36.8548 13.2669 36.8548 13.2669 36.8548 13.1341L37.253 12.2045C37.253 12.2045 37.253 12.2045 37.253 12.0717C37.253 11.9389 37.253 11.9389 37.1203 11.9389C36.324 11.5405 35.2622 11.2749 34.3331 11.2749C32.475 11.2749 31.4133 12.0717 31.4133 13.5325C31.4133 14.1965 31.6787 14.7277 32.0769 15.1261C32.6078 15.5245 33.5368 15.6573 34.3331 15.7901C35.3949 15.9229 36.0585 16.0557 36.0585 16.587C36.0585 17.5166 34.864 17.5166 34.3331 17.5166C33.5368 17.5166 32.7405 17.251 32.0769 16.8526L31.9442 16.7197L31.8114 16.8526L31.2805 17.7822L31.1478 18.1806L31.2805 18.3134C31.8114 18.7118 32.7405 19.1102 34.2004 19.1102C36.1912 19.1102 37.5185 18.1806 37.5185 16.7197C37.6512 14.8605 36.0585 14.5949 34.7313 14.4621Z" fill="white"/>
<path d="M69.2389 15.5245C69.2389 15.6573 69.1062 15.7901 68.9734 15.7901H65.6554V17.5166H69.637V18.9774H64.0627V12.2045C64.0627 11.8061 64.4609 11.4077 64.8591 11.4077H69.2389C69.3716 11.4077 69.5043 11.5405 69.5043 11.6733V12.4701C69.5043 12.6029 69.3716 12.7357 69.2389 12.7357H65.6554V14.3293H68.9734C69.1062 14.3293 69.2389 14.4621 69.2389 14.5949V15.5245Z" fill="white"/>
<path d="M83.0419 30C76.9367 30 71.8933 25.0863 71.8933 18.8446C71.8933 12.7357 76.804 7.68921 83.0419 7.68921C85.9618 7.68921 88.7489 8.88442 90.8725 10.8765L90.2089 11.5405C88.3508 9.68123 85.6964 8.61882 83.0419 8.61882C77.4676 8.61882 72.9551 13.1341 72.9551 18.7118C72.9551 24.2895 77.4676 28.8048 83.0419 28.8048C87.6872 28.8048 91.8015 25.6175 92.8633 21.1022L93.7924 21.3678C92.5979 26.5471 88.2181 30 83.0419 30Z" fill="white"/>
<path d="M83.042 19.9071C82.5111 19.9071 82.1129 19.5087 82.1129 18.9775C82.1129 18.4463 82.5111 18.0479 83.042 18.0479C83.5729 18.0479 83.971 18.4463 83.971 18.9775C83.971 19.5087 83.5729 19.9071 83.042 19.9071ZM83.042 18.8447C83.042 18.8447 83.042 18.9775 83.042 18.8447C83.042 18.9775 83.042 18.9775 83.042 18.8447C83.042 18.9775 83.042 18.9775 83.042 18.8447C83.042 18.9775 83.042 18.8447 83.042 18.8447Z" fill="white"/>
<path d="M90.607 22.4303C87.6871 22.4303 84.9 21.3679 82.9092 19.243L83.5728 18.579C85.4309 20.4382 87.9526 21.5007 90.607 21.5007C91.536 21.5007 92.4651 21.3678 93.2614 21.1022C97.6412 19.907 100.694 15.923 100.694 11.2749C100.694 5.69721 96.1813 1.18193 90.607 1.18193C85.9618 1.18193 81.8474 4.36918 80.7856 8.88445L79.8566 8.61885C81.0511 3.57237 85.5636 0.119507 90.607 0.119507C96.7122 0.119507 101.756 5.0332 101.756 11.2749C101.756 16.3214 98.4375 20.7038 93.5269 22.0319C92.5978 22.2975 91.536 22.4303 90.607 22.4303Z" fill="white"/>
<path d="M90.607 12.2045C90.0761 12.2045 89.8107 11.8061 89.8107 11.4077C89.8107 10.8765 90.2089 10.6109 90.607 10.6109C91.1379 10.6109 91.4034 11.0093 91.4034 11.4077C91.4034 11.8061 91.0052 12.2045 90.607 12.2045ZM90.607 11.2749C90.4743 11.2749 90.4743 11.2749 90.607 11.2749C90.4743 11.4077 90.607 11.5405 90.607 11.5405C90.607 11.4077 90.7398 11.4077 90.607 11.2749C90.7398 11.2749 90.607 11.2749 90.607 11.2749Z" fill="white"/>
<path d="M90.3035 11.0466L82.7288 18.6797L83.388 19.3348L90.9628 11.7016L90.3035 11.0466Z" fill="white"/>
</svg>
