<svg width="84" height="13" viewBox="0 0 84 13" fill="none" xmlns="http://www.w3.org/2000/svg">
<path d="M13.3225 11.9695H10.0045V3.86852L7.8809 12.1023H5.62465L3.5011 3.86852V12.1023H0.84668V0.681274H5.49192L7.08459 6.79017L8.67724 0.681274H13.3225V11.9695Z" fill="white"/>
<path d="M22.8784 11.9695H14.2515V0.548462H22.8784V3.2045H17.7022V4.93094H21.8166V7.45417H17.7022V9.31341H22.8784V11.9695Z" fill="white"/>
<path d="M23.6748 0.548462H27.9219C29.5146 0.548462 30.8418 0.814074 32.169 2.00929C33.3635 3.20451 33.8944 4.66532 33.8944 6.39174C33.8944 7.85256 33.3635 9.4462 32.3017 10.5086C31.1072 11.7038 29.78 12.1022 28.1873 12.1022H23.6748V0.548462ZM27.6565 9.44619C28.1873 9.44619 28.4528 9.4462 28.8509 9.18059C29.1164 9.04779 29.3818 8.78218 29.6473 8.38377C30.0455 7.71976 30.1782 6.92296 30.1782 6.12614C30.1782 5.32933 29.9127 4.39971 29.5146 3.7357C28.9837 3.07169 28.4528 3.07169 27.6565 3.07169H27.2583V9.3134H27.6565V9.44619Z" fill="white"/>
<path d="M38.0086 11.9695H34.4252V0.548462H38.0086V11.9695Z" fill="white"/>
<path d="M45.1756 9.7118H42.123L41.4594 11.9695H38.5396L42.123 0.548462H45.8392L49.4227 11.9695H45.8392L45.1756 9.7118ZM44.6447 7.32138L43.7157 4.00133L42.7866 7.32138H44.6447Z" fill="white"/>
<path d="M58.7132 7.85257C58.4478 10.5086 56.5896 12.235 53.9352 12.235C50.4844 12.235 48.6263 9.7118 48.6263 6.52455C48.6263 3.2045 50.219 0.415649 53.8025 0.415649C56.7224 0.415649 58.4477 2.14208 58.5805 5.06372L55.2624 5.19653C55.2624 4.26692 54.8643 3.07169 53.8025 3.07169C52.2098 3.07169 52.2098 5.46214 52.2098 6.52455C52.2098 7.71977 52.3426 9.57901 53.8025 9.57901C54.8643 9.57901 55.2624 8.64938 55.3952 7.71976L58.7132 7.85257Z" fill="white"/>
<path d="M70.1272 6.39174C70.1272 9.71179 68.1364 12.235 64.6856 12.235C61.2349 12.235 59.244 9.57899 59.244 6.39174C59.244 2.93889 61.2349 0.415649 64.6856 0.415649C68.1364 0.415649 70.1272 2.93889 70.1272 6.39174ZM62.9602 6.39174C62.9602 7.45416 63.093 9.57901 64.6856 9.57901C66.2783 9.57901 66.411 7.45416 66.411 6.39174C66.411 5.32933 66.2783 3.07169 64.6856 3.07169C63.093 2.93889 62.9602 5.19652 62.9602 6.39174Z" fill="white"/>
<path d="M83.1339 11.9695H79.8158V3.86852L77.6923 12.1023H75.4361L73.3125 3.86852V12.1023H70.6581V0.681274H75.3033L76.896 6.79017L78.4886 0.681274H83.1339V11.9695Z" fill="white"/>
</svg>
