<svg width="81" height="28" viewBox="0 0 81 28" fill="none" xmlns="http://www.w3.org/2000/svg">
<path d="M20.3461 27.2112C20.2134 27.2112 19.9479 27.0784 19.6825 26.68L19.0189 24.8207H14.9045L14.2409 26.68C14.1082 27.0784 13.8427 27.2112 13.5773 27.2112C13.3118 27.2112 12.9137 26.9456 12.9137 26.5472C12.9137 26.4144 12.9137 26.2816 13.0464 26.1488L16.2317 18.1806C16.4972 17.5166 16.7626 17.5166 17.0281 17.5166C17.2935 17.5166 17.559 17.6494 17.8244 18.1806L21.0097 26.1488C21.1424 26.2816 21.1424 26.4144 21.1424 26.5472C21.0097 26.9456 20.6115 27.2112 20.3461 27.2112ZM18.488 23.4927L16.8953 19.243L15.3027 23.4927H18.488ZM28.0439 18.579C28.1766 18.4462 28.1766 18.1806 28.1766 18.1806C28.1766 17.7822 27.9112 17.5166 27.513 17.5166C27.2476 17.5166 26.9822 17.6494 26.8494 18.0478L24.0623 25.3519L21.2752 18.0478C21.1424 17.6494 20.877 17.5166 20.6116 17.5166C20.2134 17.5166 19.9479 17.7822 19.9479 18.1806C19.9479 18.3134 19.9479 18.4462 20.0806 18.579L23.1333 26.4144C23.3987 27.0784 23.7968 27.2112 24.0623 27.2112C24.3277 27.2112 24.7259 27.0784 24.9913 26.4144L28.0439 18.579ZM34.5473 22.6959C35.0782 22.6959 35.2109 22.2975 35.2109 22.1647C35.2109 22.0319 35.0782 21.6335 34.5473 21.6335H30.5657V18.8446H34.8127C35.3436 18.8446 35.4763 18.4462 35.4763 18.3134C35.4763 18.1806 35.3436 17.7822 34.8127 17.7822H30.0347C29.5039 17.7822 29.2384 18.0478 29.2384 18.579V26.5472C29.2384 27.0784 29.5039 27.344 30.0347 27.344H34.9455C35.4763 27.344 35.6091 26.9456 35.6091 26.8128C35.6091 26.68 35.4763 26.2816 34.9455 26.2816H30.5657V23.0943H34.5473V22.6959ZM55.65 27.2112C55.5173 27.2112 55.2518 27.0784 54.9864 26.68L54.3228 24.8207H50.2084L49.5448 26.68C49.4121 27.0784 49.1467 27.2112 48.8812 27.2112C48.6158 27.2112 48.2176 26.9456 48.2176 26.5472C48.2176 26.4144 48.2176 26.2816 48.3503 26.1488L51.5356 18.1806C51.8011 17.5166 52.0665 17.5166 52.332 17.5166C52.5974 17.5166 52.8629 17.6494 53.1283 18.1806L56.3136 26.1488C56.4463 26.2816 56.4463 26.4144 56.4463 26.5472C56.3136 26.9456 56.0482 27.2112 55.65 27.2112ZM53.9246 23.4927L52.332 19.243L50.7393 23.4927H53.9246ZM46.4922 27.2112C46.7577 27.2112 47.1558 27.0784 47.1558 26.4144V18.3134C47.1558 17.5166 46.625 17.3838 46.3595 17.3838C46.0941 17.3838 45.6959 17.5166 45.4304 18.1806L42.2451 25.3519L39.0598 18.1806C38.7944 17.5166 38.3962 17.3838 38.1308 17.3838C37.8653 17.3838 37.3344 17.5166 37.3344 18.3134V26.4144C37.3344 27.0784 37.7326 27.0784 37.998 27.0784C38.2635 27.0784 38.6616 26.9456 38.6616 26.4144V20.3055L41.4488 26.5472C41.7142 27.0784 41.9797 27.2112 42.2451 27.2112C42.5106 27.2112 42.776 27.0784 43.0415 26.5472L45.8286 20.1726V26.4144C45.8286 27.0784 46.2268 27.2112 46.4922 27.2112ZM64.6751 26.5472C64.6751 26.4144 64.6751 26.1487 64.4096 26.0159L60.2953 22.0319L64.1442 18.7118C64.4096 18.4462 64.4096 18.3134 64.4096 18.1806C64.4096 17.7822 64.1442 17.6494 63.746 17.6494C63.6133 17.6494 63.3478 17.7822 63.2151 17.915L58.8353 21.8991V18.1806C58.8353 17.5166 58.4372 17.3838 58.1717 17.3838C57.9063 17.3838 57.5081 17.5166 57.5081 18.1806V26.4144C57.5081 27.0784 57.9063 27.2112 58.1717 27.2112C58.4372 27.2112 58.8353 27.0784 58.8353 26.4144V22.1647L63.4806 26.9456C63.6133 27.2112 63.8787 27.2112 64.0114 27.2112C64.4096 27.2112 64.6751 26.8128 64.6751 26.5472ZM71.3111 22.6959C71.842 22.6959 71.9747 22.2975 71.9747 22.1647C71.9747 22.0319 71.842 21.6335 71.3111 21.6335H67.3295V18.8446H71.5766C72.1075 18.8446 72.2402 18.4462 72.2402 18.3134C72.2402 18.1806 72.1075 17.7822 71.5766 17.7822H66.7986C66.2677 17.7822 66.0023 18.0478 66.0023 18.579V26.5472C66.0023 27.0784 66.2677 27.344 66.7986 27.344H71.7093C72.2402 27.344 72.3729 26.9456 72.3729 26.8128C72.3729 26.68 72.2402 26.2816 71.7093 26.2816H67.3295V23.0943H71.3111V22.6959ZM76.62 22.8287H75.16V26.4144C75.16 27.0784 74.7619 27.2112 74.4964 27.2112C74.231 27.2112 73.8328 27.0784 73.8328 26.4144V18.3134C73.8328 17.7822 74.0983 17.5166 74.6292 17.5166H76.8854C78.7435 17.5166 80.2035 18.1806 80.2035 20.1726C80.2035 21.5007 79.2744 22.4303 77.9472 22.6959L80.2035 26.0159C80.3362 26.1487 80.3362 26.4144 80.3362 26.4144C80.3362 26.8128 80.0708 27.0784 79.6726 27.0784C79.5399 27.0784 79.2744 26.9456 79.1417 26.68L76.62 22.8287ZM75.16 21.6335H76.7527C77.9472 21.6335 79.009 21.2351 79.009 20.0398C79.009 18.8446 78.0799 18.579 76.8854 18.579H75.2928V21.6335H75.16ZM13.4446 17.5166C13.0464 17.3838 12.6483 17.5166 12.5155 17.915L9.8611 25.0863L8.00301 17.915C7.87029 17.6494 7.60485 17.3838 7.33941 17.3838C7.07396 17.3838 6.80852 17.5166 6.6758 17.915L4.81767 25.0863L2.16324 17.915C2.03051 17.5166 1.63237 17.3838 1.23421 17.5166C0.836046 17.6494 0.7033 18.0478 0.836022 18.4462L3.88864 26.5472C4.02136 26.8128 4.15407 26.9456 4.41952 27.0784C4.9504 27.2112 5.48128 27.0784 5.614 26.5472V26.4144L7.20668 20.1726L8.79931 26.4144V26.5472C8.93203 27.0784 9.59567 27.344 9.99383 27.0784C10.2593 26.9456 10.392 26.8128 10.5247 26.5472L13.5773 18.4462C13.9755 18.0478 13.8427 17.6494 13.4446 17.5166Z" fill="white"/>
<path d="M53.7918 12.6033C53.6591 12.6033 53.5264 12.6033 53.3937 12.6033C52.8628 12.6033 52.3319 12.2049 52.1992 11.6737L50.3411 5.83042L48.483 11.6737C48.3503 12.2049 47.8193 11.6737 47.2884 11.6737C46.7576 11.6737 46.2267 12.2049 46.094 11.6737L44.2359 5.83042L42.3778 11.6737C42.245 12.2049 41.7142 12.6033 41.1833 12.6033C41.0506 12.6033 40.9178 12.6033 40.7851 12.6033C40.1215 12.3377 39.7233 11.6737 39.9887 11.0097L43.0414 1.58076C43.1741 1.04955 43.705 1.58076 44.2359 1.58076C44.7668 1.58076 45.2976 1.04955 45.4304 1.58076L47.2884 7.42404L49.1466 1.58076C49.2793 1.04955 49.8102 1.58076 50.3411 1.58076C50.872 1.58076 51.4028 1.04955 51.5356 1.58076L54.5881 11.0097C54.8536 11.6737 54.4555 12.3377 53.7918 12.6033ZM40.3869 0.783936C40.2542 0.783936 40.1215 0.783936 39.9887 0.783936C39.4579 0.783936 38.927 1.18236 38.7943 1.71357L36.9362 7.55685L35.0781 1.71357C34.9453 1.18236 34.4145 1.71357 33.8836 1.71357C33.3527 1.71357 32.8218 1.18236 32.6891 1.71357L30.831 7.55685L28.9729 1.71357C28.8401 1.18236 28.3093 0.783936 27.7784 0.783936C27.6456 0.783936 27.5129 0.783936 27.3802 0.783936C26.7166 1.04954 26.3184 1.71357 26.5839 2.37758L29.6365 11.8065C29.7692 12.3377 30.3001 11.8065 30.831 11.8065C31.3618 11.8065 31.8927 12.3377 32.0254 11.8065L33.8836 5.96323L35.7417 11.8065C35.8744 12.3377 36.4053 11.8065 36.9362 11.8065C37.4671 11.8065 37.9979 12.3377 38.1307 11.8065L41.1833 2.37758C41.4487 1.71357 41.0505 0.916738 40.3869 0.783936Z" fill="white"/>
<path d="M50.341 0.650757C50.8718 0.650757 51.4027 1.04916 51.5354 1.58037C51.6682 1.84597 51.6682 2.11159 51.5354 2.37719L50.341 5.96285L49.1465 2.37719C49.0138 2.11159 49.0138 1.84597 49.1465 1.58037C49.2792 1.04916 49.8101 0.650757 50.341 0.650757ZM42.9086 1.58037C42.7758 1.84597 42.7758 2.11159 42.9086 2.37719L44.103 5.96285L45.2975 2.37719C45.4302 2.11159 45.4302 1.84597 45.2975 1.58037C45.1648 1.04916 44.6339 0.650757 44.103 0.650757C43.5722 0.650757 43.0413 1.04916 42.9086 1.58037ZM36.9361 12.603C37.467 12.603 37.9979 12.2046 38.1306 11.6734C38.2633 11.4078 38.2633 11.1421 38.1306 10.8765L36.9361 7.29087L35.7416 10.8765C35.6089 11.1421 35.6089 11.4078 35.7416 11.6734C35.8743 12.2046 36.4052 12.603 36.9361 12.603ZM30.6982 12.603C31.2291 12.603 31.76 12.2046 31.8927 11.6734C32.0254 11.4078 32.0254 11.1421 31.8927 10.8765L30.6982 7.29087L29.5037 10.8765C29.371 11.1421 29.371 11.4078 29.5037 11.6734C29.7692 12.2046 30.1673 12.603 30.6982 12.603Z" fill="white"/>
<path d="M33.8837 0.650757C34.4145 0.650757 34.9454 1.04916 35.0781 1.58037C35.2109 1.84597 35.2109 2.11159 35.0781 2.37719L33.8837 5.96285L32.6891 2.37719C32.5564 2.11159 32.5564 1.84597 32.6891 1.58037C32.8219 1.04916 33.3528 0.650757 33.8837 0.650757ZM47.2885 12.603C47.8193 12.603 48.3503 12.2046 48.483 11.6734C48.6157 11.4078 48.6157 11.1421 48.483 10.8765L47.2885 7.29087L46.094 10.8765C45.9613 11.1421 45.9613 11.4078 46.094 11.6734C46.2267 12.2046 46.6249 12.603 47.2885 12.603Z" fill="white"/>
</svg>
