<svg width="474" height="167" viewBox="0 0 474 167" fill="none" xmlns="http://www.w3.org/2000/svg">
<path d="M0.0518799 0.220459H59.6438V11.3758H36.2848V73.9256H23.4108V11.3758H0.0518799V0.220459Z" fill="white"/>
<path d="M66.5453 0.220459H78.3575V27.5777H78.6229C80.0829 25.1873 82.2064 23.1952 85.1263 21.6016C87.9134 20.008 91.0987 19.2112 94.6822 19.2112C100.522 19.2112 105.167 20.672 108.485 23.7264C111.803 26.7809 113.529 31.2962 113.529 37.4051V74.0584H101.716V40.3267C101.584 36.077 100.655 33.0226 99.062 31.1633C97.4694 29.3041 94.8149 28.3745 91.3642 28.3745C89.3734 28.3745 87.648 28.7729 86.0553 29.4369C84.4627 30.1009 83.1355 31.1633 82.0737 32.4914C81.0119 33.8194 80.0829 35.2802 79.552 37.0066C78.8884 38.7331 78.6229 40.5923 78.6229 42.4515V73.9256H66.8107V0.220459H66.5453Z" fill="white"/>
<path d="M126.137 0.220459H137.949V11.3758H126.137V0.220459ZM126.137 20.5392H137.949V73.9256H126.137V20.5392Z" fill="white"/>
<path d="M159.583 56.7942C159.981 60.247 161.176 62.6375 163.565 63.9655C165.821 65.2935 168.608 66.0903 171.661 66.0903C172.722 66.0903 174.05 65.9575 175.377 65.8247C176.837 65.6919 178.164 65.2935 179.359 64.8951C180.553 64.3639 181.615 63.6999 182.411 62.7703C183.207 61.8407 183.606 60.6454 183.473 59.0518C183.34 57.591 182.809 56.263 181.88 55.3334C180.818 54.4038 179.491 53.6069 177.899 53.0757C176.306 52.5445 174.448 52.0133 172.324 51.6149C170.201 51.2165 168.21 50.8181 166.086 50.2869C163.83 49.7557 161.707 49.2245 159.716 48.5605C157.725 47.8965 155.867 46.9668 154.274 45.7716C152.681 44.5764 151.354 43.1156 150.425 41.2563C149.496 39.3971 148.965 37.1395 148.965 34.4834C148.965 31.5618 149.629 29.1713 151.089 27.1793C152.549 25.1873 154.274 23.5937 156.398 22.3984C158.521 21.2032 160.91 20.4064 163.565 19.8752C166.219 19.344 168.741 19.2112 171.13 19.2112C173.917 19.2112 176.571 19.4768 178.96 20.1408C181.482 20.672 183.738 21.7344 185.729 22.9296C187.72 24.2577 189.445 25.9841 190.773 27.9761C192.1 30.101 192.896 32.6242 193.294 35.5458H181.084C180.553 32.757 179.226 30.8978 177.235 29.8354C175.244 28.9057 172.855 28.3745 170.333 28.3745C169.537 28.3745 168.475 28.5073 167.414 28.6401C166.219 28.7729 165.157 29.0385 164.228 29.437C163.166 29.8354 162.37 30.3666 161.707 31.0306C161.043 31.6946 160.645 32.757 160.645 33.8194C160.645 35.2802 161.176 36.4755 162.105 37.2723C163.167 38.2019 164.361 38.8659 166.086 39.5299C167.679 40.0611 169.537 40.5923 171.661 40.9907C173.784 41.3891 175.908 41.7875 178.031 42.3188C180.155 42.85 182.278 43.3812 184.269 44.0452C186.393 44.7092 188.118 45.6388 189.843 46.834C191.436 48.0292 192.763 49.4901 193.825 51.2165C194.754 52.9429 195.285 55.2006 195.285 57.8566C195.285 61.0439 194.621 63.6999 193.162 65.9575C191.702 68.2152 189.843 69.9416 187.587 71.2696C185.331 72.5976 182.677 73.6601 179.889 74.3241C177.102 74.9881 174.315 75.2537 171.528 75.2537C168.21 75.2537 165.025 74.8553 162.237 74.0585C159.318 73.2617 156.929 72.1992 154.805 70.6056C152.682 69.012 151.089 67.1528 149.894 64.7623C148.7 62.5047 148.036 59.7158 148.036 56.5286H159.583V56.7942Z" fill="white"/>
<path d="M253.682 44.9748L226.076 0.220459H241.074L260.584 33.2882L279.829 0.220459H294.295L266.822 44.9748V73.9256H253.948V44.9748H253.682Z" fill="white"/>
<path d="M299.339 50.2869C299.339 52.4117 299.604 54.4037 300.268 56.263C300.799 58.255 301.728 59.8486 302.922 61.3094C304.117 62.7703 305.576 63.9655 307.302 64.7623C309.027 65.5591 311.283 66.0903 313.672 66.0903C317.123 66.0903 319.91 65.2935 322.034 63.8327C324.157 62.3719 325.75 60.1142 326.679 57.1926H337.828C337.164 60.1142 336.102 62.6375 334.642 64.8951C333.183 67.1527 331.324 69.012 329.201 70.6056C327.077 72.1992 324.688 73.2616 322.034 74.0584C319.38 74.8553 316.592 75.2537 313.672 75.2537C309.425 75.2537 305.709 74.5897 302.524 73.1288C299.339 71.8008 296.551 69.8088 294.295 67.2855C292.039 64.7623 290.314 61.8406 289.252 58.3878C288.057 54.9349 287.526 51.2165 287.526 47.0996C287.526 43.3811 288.19 39.6627 289.384 36.3426C290.579 32.8898 292.304 29.9681 294.561 27.3121C296.817 24.7889 299.471 22.664 302.657 21.2032C305.842 19.7424 309.425 18.9456 313.407 18.9456C317.654 18.9456 321.37 19.8752 324.688 21.6016C328.006 23.328 330.794 25.7185 333.05 28.5073C335.306 31.429 336.899 34.749 337.828 38.4675C338.89 42.1859 339.022 46.0372 338.624 50.0213H299.339V50.2869ZM326.812 42.4515C326.679 40.5923 326.281 38.8659 325.617 37.1394C324.954 35.413 324.025 33.9522 322.963 32.6242C321.768 31.2962 320.441 30.3665 318.849 29.5697C317.256 28.7729 315.398 28.3745 313.407 28.3745C311.284 28.3745 309.425 28.7729 307.833 29.4369C306.107 30.1009 304.647 31.1633 303.453 32.4914C302.258 33.8194 301.329 35.2802 300.533 37.0066C299.869 38.7331 299.471 40.5923 299.339 42.5843H326.812V42.4515Z" fill="white"/>
<path d="M392.244 61.9734C392.244 63.4342 392.376 64.4967 392.774 65.0279C393.173 65.6919 393.836 65.9575 395.031 65.9575C395.429 65.9575 395.827 65.9575 396.225 65.9575C396.756 65.9575 397.287 65.8247 397.818 65.6919V73.7928C397.42 73.9256 396.889 74.0584 396.225 74.324C395.562 74.4568 394.898 74.5896 394.234 74.7224C393.571 74.8552 392.907 74.988 392.111 74.988C391.447 75.1208 390.784 75.1208 390.385 75.1208C387.997 75.1208 386.006 74.5896 384.413 73.66C382.82 72.7304 381.759 71.004 381.36 68.6135C378.971 70.8712 376.184 72.5976 372.734 73.5272C369.283 74.5896 366.097 75.1208 362.912 75.1208C360.523 75.1208 358.267 74.8552 356.011 74.1912C353.754 73.5272 351.896 72.5976 350.171 71.2696C348.446 69.9416 347.118 68.3479 346.189 66.3559C345.128 64.3639 344.729 62.1062 344.729 59.4502C344.729 56.1301 345.393 53.4741 346.587 51.3493C347.782 49.2244 349.375 47.6308 351.365 46.4356C353.356 45.2404 355.48 44.4435 358.002 43.9123C360.39 43.3811 362.912 42.9827 365.434 42.7171C367.557 42.3187 369.548 42.0531 371.539 41.7875C373.53 41.6547 375.123 41.3891 376.582 40.8579C378.042 40.4595 379.237 39.7955 380.033 38.9987C380.83 38.2018 381.36 36.8738 381.36 35.1474C381.36 33.6866 380.962 32.3586 380.299 31.4289C379.635 30.4993 378.706 29.7025 377.644 29.1713C376.582 28.6401 375.388 28.3745 374.061 28.1089C372.734 27.9761 371.539 27.8433 370.345 27.8433C367.027 27.8433 364.372 28.5073 362.249 29.9681C360.125 31.2961 358.931 33.421 358.665 36.3426H346.853C347.118 32.8898 347.915 30.1009 349.375 27.8433C350.835 25.5856 352.693 23.7264 354.949 22.3984C357.205 21.0704 359.727 20.008 362.514 19.4767C365.301 18.9455 368.221 18.6799 371.141 18.6799C373.795 18.6799 376.317 18.9455 378.839 19.4767C381.36 20.008 383.617 20.9376 385.74 22.1328C387.731 23.328 389.456 24.9216 390.651 26.9137C391.845 28.9057 392.509 31.2961 392.509 34.085V61.9734H392.244ZM380.431 47.0996C378.706 48.2948 376.45 48.9588 373.795 49.2244C371.141 49.49 368.619 49.8884 365.965 50.2868C364.77 50.5524 363.576 50.8181 362.381 51.2165C361.187 51.6149 360.125 52.1461 359.329 52.8101C358.4 53.4741 357.736 54.2709 357.205 55.3333C356.674 56.3957 356.409 57.7238 356.409 59.1846C356.409 60.5126 356.807 61.575 357.603 62.5046C358.4 63.4343 359.329 64.0983 360.39 64.6295C361.452 65.1607 362.647 65.5591 363.841 65.6919C365.168 65.9575 366.23 65.9575 367.292 65.9575C368.619 65.9575 369.946 65.8247 371.539 65.4263C372.999 65.0279 374.459 64.4967 375.786 63.6998C377.113 62.903 378.308 61.8406 379.104 60.5126C380.033 59.1846 380.431 57.7238 380.431 55.8645V47.0996Z" fill="white"/>
<path d="M404.852 20.5392H415.868V30.8978H416.133C416.532 29.4369 417.195 28.1089 418.124 26.6481C419.053 25.3201 420.381 23.9921 421.708 22.9296C423.168 21.7344 424.628 20.9376 426.353 20.1408C428.078 19.4768 429.804 19.0784 431.662 19.0784C432.989 19.0784 433.918 19.0784 434.449 19.2112C434.98 19.344 435.511 19.344 436.042 19.4768V30.765C435.245 30.6322 434.316 30.4994 433.52 30.3666C432.724 30.2338 431.795 30.2338 430.998 30.2338C429.007 30.2338 427.149 30.6322 425.424 31.429C423.699 32.2258 422.106 33.421 420.779 34.8818C419.452 36.4755 418.39 38.3347 417.726 40.5923C416.93 42.85 416.532 45.506 416.532 48.4276V73.7929H404.852V20.5392Z" fill="white"/>
<path d="M21.5527 91.7211H35.223L68.8016 146.037H69.067V91.7211H81.2774V165.426H67.7398L34.1613 111.243H33.8958V165.426H21.6855V91.7211H21.5527Z" fill="white"/>
<path d="M104.105 141.788C104.105 143.912 104.371 145.904 105.034 147.764C105.565 149.756 106.494 151.349 107.689 152.81C108.883 154.271 110.343 155.466 112.069 156.263C113.794 157.06 116.05 157.591 118.439 157.591C121.89 157.591 124.677 156.794 126.801 155.333C128.924 153.873 130.517 151.615 131.446 148.693H142.595C141.931 151.615 140.869 154.138 139.409 156.396C137.949 158.653 136.091 160.513 133.968 162.106C131.844 163.7 129.455 164.762 126.801 165.559C124.146 166.356 121.359 166.754 118.439 166.754C114.192 166.754 110.476 166.09 107.291 164.629C104.105 163.301 101.318 161.309 99.062 158.786C96.8057 156.263 95.0804 153.341 94.0186 149.888C92.8241 146.436 92.2932 142.717 92.2932 138.6C92.2932 134.882 92.9568 131.163 94.1513 127.843C95.3458 124.39 97.0712 121.469 99.3275 118.813C101.584 116.29 104.238 114.165 107.423 112.704C110.609 111.243 114.192 110.446 118.174 110.446C122.421 110.446 126.137 111.376 129.455 113.102C132.773 114.829 135.56 117.219 137.817 120.008C140.073 122.93 141.666 126.25 142.595 129.968C143.656 133.687 143.789 137.538 143.391 141.522H104.105V141.788ZM131.579 134.085C131.446 132.226 131.048 130.499 130.384 128.773C129.721 127.046 128.792 125.586 127.73 124.258C126.535 122.93 125.208 122 123.615 121.203C122.023 120.406 120.165 120.008 118.174 120.008C116.05 120.008 114.192 120.406 112.6 121.07C110.874 121.734 109.414 122.797 108.22 124.125C107.025 125.453 106.096 126.914 105.3 128.64C104.636 130.367 104.238 132.226 104.105 134.218H131.579V134.085Z" fill="white"/>
<path d="M166.617 137.405L148.169 112.173H162.37L173.519 128.64L185.198 112.173H198.869L180.686 136.874L201.125 165.559H187.056L173.519 145.904L160.379 165.559H146.576L166.617 137.405Z" fill="white"/>
<path d="M202.319 112.04H211.212V96.1036H223.024V112.04H233.642V120.805H223.024V149.224C223.024 150.42 223.024 151.482 223.157 152.412C223.289 153.341 223.555 154.005 223.82 154.669C224.218 155.333 224.749 155.732 225.546 155.997C226.342 156.263 227.271 156.396 228.598 156.396C229.395 156.396 230.191 156.396 231.12 156.396C231.916 156.396 232.713 156.263 233.642 155.997V165.028C232.314 165.161 231.12 165.294 229.793 165.426C228.598 165.559 227.271 165.692 225.944 165.692C222.891 165.692 220.369 165.426 218.511 164.762C216.653 164.098 215.193 163.301 214.132 162.239C213.07 161.044 212.406 159.716 212.008 157.989C211.61 156.263 211.344 154.271 211.344 152.146V120.672H202.452V112.04H202.319Z" fill="white"/>
<path d="M291.508 136.608L263.902 91.8539H278.9L298.41 124.922L317.654 91.8539H332.121L304.648 136.608V165.559H291.774V136.608H291.508Z" fill="white"/>
<path d="M337.164 141.788C337.164 143.912 337.43 145.904 338.093 147.764C338.624 149.756 339.553 151.349 340.748 152.81C341.942 154.271 343.402 155.466 345.128 156.263C346.853 157.06 349.109 157.591 351.498 157.591C354.949 157.591 357.736 156.794 359.86 155.333C361.983 153.873 363.576 151.615 364.505 148.693H375.653C374.99 151.615 373.928 154.138 372.468 156.396C371.008 158.653 369.15 160.513 367.027 162.106C364.903 163.7 362.514 164.762 359.86 165.559C357.205 166.356 354.418 166.754 351.498 166.754C347.251 166.754 343.535 166.09 340.35 164.629C337.164 163.301 334.377 161.309 332.121 158.786C329.865 156.263 328.139 153.341 327.077 149.888C325.883 146.436 325.352 142.717 325.352 138.6C325.352 134.882 326.016 131.163 327.21 127.843C328.405 124.39 330.13 121.469 332.386 118.813C334.643 116.29 337.297 114.165 340.482 112.704C343.668 111.243 347.251 110.446 351.233 110.446C355.48 110.446 359.196 111.376 362.514 113.102C365.832 114.829 368.619 117.219 370.875 120.008C373.132 122.93 374.724 126.25 375.653 129.968C376.715 133.687 376.848 137.538 376.45 141.522H337.164V141.788ZM364.638 134.085C364.505 132.226 364.107 130.499 363.443 128.773C362.779 127.046 361.85 125.586 360.789 124.258C359.594 122.93 358.267 122 356.674 121.203C355.082 120.406 353.224 120.008 351.233 120.008C349.109 120.008 347.251 120.406 345.658 121.07C343.933 121.734 342.473 122.797 341.279 124.125C340.084 125.453 339.155 126.914 338.359 128.64C337.695 130.367 337.297 132.226 337.164 134.218H364.638V134.085Z" fill="white"/>
<path d="M430.069 153.607C430.069 155.068 430.202 156.13 430.6 156.661C430.998 157.325 431.662 157.591 432.856 157.591C433.254 157.591 433.653 157.591 434.051 157.591C434.582 157.591 435.113 157.458 435.643 157.325V165.426C435.245 165.559 434.714 165.692 434.051 165.957C433.387 166.09 432.724 166.223 432.06 166.356C431.396 166.489 430.733 166.621 429.936 166.621C429.273 166.754 428.609 166.754 428.211 166.754C425.822 166.754 423.831 166.223 422.239 165.293C420.646 164.364 419.584 162.637 419.186 160.247C416.797 162.505 414.01 164.231 410.559 165.161C407.108 166.223 403.923 166.754 400.738 166.754C398.349 166.754 396.092 166.489 393.836 165.825C391.58 165.161 389.722 164.231 387.996 162.903C386.271 161.575 384.944 159.981 384.015 157.989C382.953 155.997 382.555 153.74 382.555 151.084C382.555 147.764 383.219 145.108 384.413 142.983C385.608 140.858 387.2 139.264 389.191 138.069C391.182 136.874 393.305 136.077 395.827 135.546C398.216 135.015 400.738 134.616 403.259 134.351C405.383 133.952 407.374 133.687 409.365 133.421C411.355 133.288 412.948 133.023 414.408 132.491C415.868 132.093 417.062 131.429 417.859 130.632C418.655 129.835 419.186 128.507 419.186 126.781C419.186 125.32 418.788 123.992 418.124 123.062C417.461 122.133 416.532 121.336 415.47 120.805C414.408 120.274 413.214 120.008 411.886 119.742C410.559 119.61 409.365 119.477 408.17 119.477C404.852 119.477 402.198 120.141 400.074 121.602C397.951 122.93 396.756 125.054 396.491 127.976H384.678C384.944 124.523 385.74 121.734 387.2 119.477C388.66 117.219 390.518 115.36 392.774 114.032C395.031 112.704 397.552 111.641 400.34 111.11C403.127 110.579 406.047 110.313 408.966 110.313C411.621 110.313 414.143 110.579 416.664 111.11C419.186 111.641 421.442 112.571 423.566 113.766C425.557 114.961 427.282 116.555 428.476 118.547C429.671 120.539 430.335 122.93 430.335 125.718V153.607H430.069ZM418.257 138.733C416.532 139.928 414.275 140.592 411.621 140.858C408.966 141.123 406.445 141.522 403.79 141.92C402.596 142.186 401.401 142.452 400.207 142.85C399.012 143.248 397.951 143.78 397.154 144.444C396.225 145.108 395.562 145.904 395.031 146.967C394.5 148.029 394.234 149.357 394.234 150.818C394.234 152.146 394.633 153.208 395.429 154.138C396.225 155.068 397.154 155.732 398.216 156.263C399.278 156.794 400.472 157.193 401.667 157.325C402.994 157.591 404.056 157.591 405.118 157.591C406.445 157.591 407.772 157.458 409.365 157.06C410.825 156.661 412.284 156.13 413.612 155.333C414.939 154.536 416.133 153.474 416.93 152.146C417.859 150.818 418.257 149.357 418.257 147.498V138.733Z" fill="white"/>
<path d="M442.678 112.04H453.694V122.398H453.959C454.357 120.938 455.021 119.61 455.95 118.149C456.879 116.821 458.206 115.493 459.533 114.43C460.993 113.235 462.453 112.438 464.179 111.641C465.904 110.977 467.629 110.579 469.488 110.579C470.815 110.579 471.744 110.579 472.275 110.712C472.806 110.845 473.336 110.845 473.867 110.977V122.266C473.071 122.133 472.142 122 471.346 121.867C470.549 121.734 469.62 121.734 468.824 121.734C466.833 121.734 464.975 122.133 463.25 122.93C461.524 123.726 459.932 124.922 458.604 126.382C457.277 127.976 456.215 129.835 455.552 132.093C454.755 134.351 454.357 137.007 454.357 139.928V165.293H442.545V112.04H442.678Z" fill="white"/>
</svg>
